<svg id="Capa_2" data-name="Capa 2" xmlns="http://www.w3.org/2000/svg" viewBox="0 0 25 25"><defs><style>.cls-1{fill:#fff;}</style></defs><title>usuario</title><path class="cls-1" d="M21,22a13.7,13.7,0,0,1-8,3,13.8,13.8,0,0,1-9-3L7,4,22,5Z" transform="translate(-0.44 -0.9)"/><path d="M10.35,1.05A12.11,12.11,0,0,0,3.81,4.73,12,12,0,0,0,.69,10.26a10,10,0,0,0-.25,3.11,10,10,0,0,0,.25,3.11A11.61,11.61,0,0,0,4,22.15,11.46,11.46,0,0,0,8,25a13.06,13.06,0,0,0,9.76,0,11.36,11.36,0,0,0,4-2.8,11.42,11.42,0,0,0,2.83-4.22,13.14,13.14,0,0,0,0-9.14,11.08,11.08,0,0,0-2.88-4.26A11.39,11.39,0,0,0,16.05,1.2,18.63,18.63,0,0,0,10.35,1.05Zm3.9,4.88a4.59,4.59,0,0,1,2.92,2.91,4.49,4.49,0,0,1-5.65,5.64,4.59,4.59,0,0,1-2.92-2.91A4.49,4.49,0,0,1,14.25,5.94Zm.35,10.3a8.7,8.7,0,0,1,6,4.6l.27.54-.51.45a12,12,0,0,1-4.71,2.48,14.34,14.34,0,0,1-5.45,0,12,12,0,0,1-4.71-2.48l-.51-.45.27-.54a8.76,8.76,0,0,1,5.92-4.6A10,10,0,0,1,14.6,16.23Z" transform="translate(-0.44 -0.9)"/></svg>